<svg width="25" height="24" viewBox="0 0 25 24" fill="none" xmlns="http://www.w3.org/2000/svg">
<g clip-path="url(#clip0_4903_1165)">
<path d="M12.5 0C5.87276 0 0.5 5.37276 0.5 12C0.5 18.6272 5.87276 24 12.5 24C19.1272 24 24.5 18.6272 24.5 12C24.5 5.37276 19.1272 0 12.5 0ZM7.13358 6.59556H17.8601C18.0058 6.59556 18.1515 6.61457 18.2846 6.65259C18.2656 6.67159 18.2466 6.68427 18.2276 6.70327L13.4314 12.1394C13.1906 12.4118 12.8548 12.5639 12.4937 12.5639C12.1325 12.5639 11.7967 12.4118 11.556 12.1394L6.71542 6.64625C6.84847 6.60824 6.98786 6.58923 7.13358 6.58923V6.59556ZM19.5201 14.49C19.5201 16.0993 18.2149 17.4044 16.6056 17.4044H8.3944C6.78511 17.4044 5.47994 16.0993 5.47994 14.49V8.25554C5.47994 8.02112 5.53062 7.8057 5.61299 7.60296L10.4662 13.1088C10.9794 13.6917 11.7207 14.0275 12.5 14.0275C13.2793 14.0275 14.0206 13.6917 14.5338 13.1088L19.33 7.67265C19.33 7.67265 19.368 7.62196 19.387 7.59662C19.4757 7.79937 19.5264 8.02112 19.5264 8.25554V14.49H19.5201Z" fill="white"/>
</g>
<defs>
<clipPath id="clip0_4903_1165">
<rect width="24" height="24" fill="white" transform="translate(0.5)"/>
</clipPath>
</defs>
</svg>
