<svg width="25" height="24" viewBox="0 0 25 24" fill="none" xmlns="http://www.w3.org/2000/svg">
<g clip-path="url(#clip0_4903_1163)">
<path d="M12.5 0C5.87276 0 0.5 5.37276 0.5 12C0.5 18.6272 5.87276 24 12.5 24C19.1272 24 24.5 18.6272 24.5 12C24.5 5.37276 19.1272 0 12.5 0ZM18.9625 12.9757L13.5961 18.3421C12.9942 18.944 12.0185 18.944 11.4166 18.3421L6.05016 12.9757C4.59926 11.5248 4.59926 9.18057 6.05016 7.72967C6.77244 7.00739 7.72281 6.64625 8.67318 6.64625C9.62355 6.64625 10.5739 7.00739 11.2962 7.72967L12.5127 8.93981L13.6595 7.79303C15.1103 6.34213 17.4926 6.2661 18.9562 7.71067C19.6911 8.43928 20.0586 9.38965 20.0586 10.3464C20.0586 11.3031 19.6975 12.2408 18.9752 12.9694L18.9625 12.9757Z" fill="white"/>
</g>
<defs>
<clipPath id="clip0_4903_1163">
<rect width="24" height="24" fill="white" transform="translate(0.5)"/>
</clipPath>
</defs>
</svg>
