<svg width="69" height="46" viewBox="0 0 69 46" fill="none" xmlns="http://www.w3.org/2000/svg">
<g clip-path="url(#clip0_4902_23532)">
<path d="M68.1143 14.502C67.6642 12.6623 66.8605 10.959 65.7299 9.41409C66.0461 9.14113 66.2443 8.73715 66.2443 8.28404C66.2443 7.46517 65.5906 6.79915 64.7869 6.79915C64.3958 6.79915 64.0421 6.95746 63.7796 7.21404C61.3898 4.94849 58.1535 3.16334 54.2046 1.97323C47.089 -0.172222 38.3767 -0.150385 29.6751 2.02783C26.9853 2.70476 24.3652 3.57277 21.8683 4.61548C21.6325 4.11869 21.1342 3.7693 20.5556 3.7693C19.7518 3.7693 19.0981 4.43532 19.0981 5.2542C19.0981 5.45073 19.1357 5.63634 19.2053 5.81104C17.3353 6.71726 15.5511 7.72175 13.8954 8.80812C9.38922 11.767 5.84214 15.2991 3.63459 19.0277C1.21807 23.1057 0.446502 27.3311 1.40561 31.2563C2.82551 37.0594 7.7657 41.5086 15.3153 43.7851C18.841 44.8496 22.7631 45.3792 26.8728 45.3792C30.9825 45.3792 35.4511 44.8278 39.8395 43.725C45.6102 42.2783 51.0701 39.9309 55.6191 36.9447C60.1253 33.9858 63.6724 30.4538 65.88 26.7251C68.2911 22.6471 69.0627 18.4217 68.1036 14.502H68.1143Z" fill="#B90019"/>
<path d="M66.6567 14.8733C65.3707 9.61607 60.8002 5.55444 53.7757 3.44174C46.9066 1.37271 38.4783 1.40001 30.0285 3.51817C26.3367 4.44623 22.7843 5.74551 19.5319 7.35051C19.4355 6.68995 19.2855 6.00209 19.0872 5.29786C19.0336 5.10133 18.8729 4.94847 18.6746 4.91026C18.4764 4.86658 18.2728 4.94301 18.1442 5.10133C17.9191 5.37975 17.6512 5.36337 16.7993 5.145H16.7725C15.6687 4.85566 14.0398 4.43531 12.4646 6.46066C10.9375 5.38521 9.00856 4.9048 7.42256 5.21597C5.59544 5.57628 3.88619 6.70087 2.61096 8.37138C1.19641 10.233 0.451633 12.5149 0.510573 14.7804C0.510573 14.9388 0.521289 15.0971 0.532005 15.2609C0.703465 17.3954 1.63578 19.3279 3.17356 20.7692C3.43075 21.0148 3.72545 21.2441 4.04158 21.4461C2.53059 24.6452 2.11801 27.877 2.85207 30.885C4.13803 36.1422 8.70851 40.2038 15.733 42.3165C19.1247 43.3374 22.8968 43.8506 26.8672 43.8506C30.8376 43.8506 35.2045 43.3156 39.4802 42.2401C45.0956 40.8316 50.3947 38.5552 54.8045 35.6618C59.1178 32.8285 62.5041 29.4656 64.5938 25.9335C66.796 22.2158 67.5086 18.389 66.646 14.8678L66.6567 14.8733Z" fill="white"/>
<path fill-rule="evenodd" clip-rule="evenodd" d="M21.0483 4.98123C21.0483 4.70827 20.7804 4.69189 20.7804 4.69189H20.1642V5.81649H20.3357V5.31424H20.5125L20.834 5.81649H21.0537L20.7215 5.30332C21.0698 5.30332 21.043 4.98123 21.043 4.98123H21.0483ZM20.3357 5.13955V4.85021H20.7161C20.7161 4.85021 20.8608 4.85021 20.8608 4.98123C20.8608 4.98123 20.909 5.13409 20.7215 5.13409H20.3357V5.13955ZM20.5554 4.21149C19.9874 4.21149 19.532 4.68098 19.532 5.25419C19.532 5.8274 19.9928 6.29689 20.5554 6.29689C21.118 6.29689 21.5788 5.8274 21.5788 5.25419C21.5788 4.68098 21.118 4.21149 20.5554 4.21149ZM20.5554 6.10582C20.0946 6.10582 19.7195 5.72368 19.7195 5.25419C19.7195 4.7847 20.0946 4.40256 20.5554 4.40256C21.0162 4.40256 21.3913 4.7847 21.3913 5.25419C21.3913 5.72368 21.0162 6.10582 20.5554 6.10582Z" fill="white"/>
<path d="M16.2581 9.34857C15.9527 9.40862 15.7009 9.73071 15.6794 10.0856L16.8475 9.83444C16.8154 9.49597 16.5528 9.28852 16.2581 9.34857Z" fill="#B90019"/>
<path d="M19.1141 8.0493C19.023 7.23042 18.8408 6.35695 18.5569 5.42889C18.0961 6.0294 17.437 5.87655 16.6601 5.69093C15.4866 5.41798 14.04 5.05221 12.6147 7.30685L12.5986 7.33415L12.5772 7.31777C11.1144 6.16588 9.08904 5.60905 7.50839 5.95298C5.90631 6.30782 4.29888 7.32323 3.07186 8.9992C1.79663 10.7407 1.09472 12.9353 1.19116 15.108C1.19652 15.2609 1.20724 15.4083 1.22331 15.5557C1.44299 17.7939 2.51998 19.6937 4.23458 21.0258C4.78111 20.0977 5.56875 19.0605 7.24585 18.0723C8.96045 17.0679 11.3877 16.249 14.2918 15.572C15.2134 15.3591 16.076 14.9497 16.794 14.3929C17.5817 13.7814 18.1818 13.0226 18.5836 12.1273C18.9641 11.2811 19.1623 10.3149 19.173 9.26124C19.173 8.86818 19.157 8.45874 19.1087 8.03838L19.1141 8.0493ZM15.208 8.03838C15.2723 8.01654 17.1852 7.43241 17.1852 7.43241C17.2709 7.40512 17.3459 7.487 17.3459 7.60165V7.9019C17.3566 8.01108 17.287 8.12027 17.1959 8.13665L15.208 8.52425C15.1437 8.53517 15.0955 8.48603 15.0901 8.40961V8.22399C15.0901 8.14756 15.1277 8.06568 15.2027 8.04384L15.208 8.03838ZM14.2221 8.03838L14.49 7.98379C14.5918 7.96195 14.7097 8.05476 14.7151 8.1967L14.8276 12.029C14.8276 12.1655 14.7151 12.2856 14.6133 12.3129L14.3454 12.3893C14.2436 12.4166 14.1578 12.3293 14.1578 12.1928L14.04 8.32772C14.04 8.18578 14.1203 8.06022 14.2221 8.03838ZM12.5343 9.58333L12.6843 9.55057L12.6629 8.56246C12.6629 8.42052 12.7433 8.2895 12.8504 8.26767L13.1398 8.21307C13.2469 8.19124 13.338 8.2895 13.3434 8.42598L13.3648 9.40318L13.8042 9.30491C13.8792 9.28853 13.9435 9.35404 13.9489 9.45231V9.71981C13.9542 9.81807 13.8953 9.91088 13.8203 9.93272L13.3755 10.0364L13.4077 11.505C13.4131 11.7888 13.5524 11.9526 13.7881 11.8926L13.831 11.8816C13.9114 11.8598 13.981 11.9253 13.9864 12.0345V12.3238C13.9917 12.433 13.9274 12.5367 13.8471 12.5586L13.5845 12.6295C13.0755 12.7715 12.7433 12.3566 12.7326 11.7943L12.7004 10.1893L12.5504 10.2221C12.47 10.2384 12.4057 10.1729 12.4004 10.0692V9.79624C12.3896 9.69251 12.4539 9.59971 12.5343 9.58333ZM11.5377 11.8871C11.393 11.8762 11.1037 11.8543 10.9269 11.8434C10.5411 11.8161 10.2142 11.5923 10.2035 11.0901C10.1875 10.4295 10.6322 9.91634 11.3019 9.76894C11.9396 9.627 12.3896 9.96001 12.395 10.4404C12.395 10.5278 12.3361 10.6042 12.2878 10.6151L11.9717 10.6915C11.8913 10.7134 11.8324 10.7079 11.8003 10.626C11.7306 10.4513 11.5538 10.3804 11.3127 10.435C11.0876 10.4896 10.9108 10.6151 10.9215 10.8662C10.9215 11.03 11.0662 11.0518 11.2162 11.0682C11.3019 11.0737 11.6877 11.1064 11.8485 11.1228C12.245 11.1556 12.4968 11.4231 12.5075 11.8926C12.5236 12.7114 11.8806 13.1373 11.3984 13.2737C10.7126 13.4703 10.1928 13.1154 10.1821 12.6295V12.575C10.1821 12.4767 10.241 12.3948 10.3053 12.3784L10.5089 12.3129C10.6107 12.2856 10.8197 12.2583 10.8626 12.373C10.9322 12.564 11.1573 12.635 11.3877 12.575C11.6234 12.5094 11.8378 12.362 11.8324 12.0945C11.8324 11.9308 11.6931 11.9089 11.5377 11.898V11.8871ZM3.56481 10.4568C3.56481 10.2712 3.68805 10.102 3.85415 10.0692L4.35782 9.95455C4.5775 9.91088 4.73824 10.0091 4.81326 10.1402C4.91506 10.3149 6.30817 12.9735 6.30817 12.9735L6.20637 9.96547C6.20637 9.79078 6.31353 9.62154 6.46356 9.59425L12.1164 8.49695C12.1968 8.48057 12.2664 8.557 12.2718 8.66073V8.95006C12.2825 9.05925 12.2182 9.15751 12.1325 9.17389L7.01009 10.2221L7.10653 14.0653C7.10653 14.24 6.99937 14.4092 6.84934 14.4529L6.39926 14.5894C6.20101 14.644 6.07242 14.5621 5.98669 14.4256C5.93846 14.3492 4.45962 11.6251 4.45962 11.6251L4.56678 14.8078C4.56678 14.9879 4.4489 15.1681 4.29352 15.2117L3.99346 15.3155C3.83272 15.3591 3.69341 15.25 3.68805 15.0698L3.56481 10.4513V10.4568ZM8.74612 13.2028C9.00331 13.1263 9.16941 12.9571 9.27658 12.7005C9.30873 12.6186 9.36766 12.5586 9.44268 12.5367L9.84454 12.4221C9.93563 12.3948 9.98385 12.4985 9.97313 12.5913C9.88204 13.2628 9.34087 13.8196 8.77291 13.9889C7.92097 14.2455 7.35837 13.5085 7.33158 12.4767C7.31014 11.5104 7.79237 10.4732 8.67647 10.2657C9.60342 10.0474 10.0267 10.8553 10.0481 11.7506C10.0481 11.9417 9.98921 12.0727 9.83382 12.1164L8.09779 12.5913C8.12994 13.0008 8.38713 13.3065 8.75148 13.2028H8.74612ZM3.81664 18.2907L3.77378 16.6202C10.1124 12.1983 14.2382 15.2281 17.437 11.8434C15.5617 15.8941 9.05154 12.6023 3.81664 18.2962V18.2907ZM17.3084 10.3367L15.6903 10.7079C15.717 11.0628 15.9582 11.3303 16.3011 11.2538C16.5368 11.1992 16.6922 11.0191 16.794 10.7953C16.8262 10.7243 16.8798 10.6752 16.9494 10.6588L17.3191 10.5714C17.4049 10.5496 17.4477 10.6424 17.437 10.7188C17.3513 11.303 16.8423 11.8052 16.3118 11.9362C15.5134 12.1382 14.9937 11.4831 14.9776 10.5933C14.9615 9.75802 15.417 8.86818 16.2475 8.70986C17.1155 8.54063 17.5013 9.25032 17.5174 10.031C17.5174 10.2002 17.4584 10.3094 17.3138 10.3422L17.3084 10.3367Z" fill="#B90019"/>
<path d="M8.69261 11.0082C8.36577 11.0901 8.09786 11.4613 8.08179 11.8762L9.33023 11.5486C9.29272 11.1556 9.0141 10.9263 8.69261 11.0027V11.0082Z" fill="#B90019"/>
<path d="M22.5327 24.3777L26.4441 21.9538V33.0032L22.5381 33.9531V24.3832L22.5327 24.3777ZM26.2352 17.8758C25.5708 16.844 24.2687 16.7894 23.2614 17.783C22.2594 18.7766 22.0398 20.4198 22.7042 21.457C23.3632 22.4724 24.692 22.5107 25.6726 21.528C26.6478 20.5454 26.8942 18.8912 26.2352 17.8758ZM27.8908 5.03583C25.4636 5.76736 23.1543 6.65175 21.0003 7.65624L14.4634 23.6789V16.2162C12.8077 16.6147 11.3557 17.046 10.1286 17.5101C10.0697 17.5319 10.0108 17.5537 9.95718 17.5756L9.91968 38.8063C11.2539 39.6525 12.7756 40.384 14.4687 40.9954L14.5545 31.5729L22.672 42.7806C24.5527 42.9662 26.5031 43.0208 28.491 42.9498L17.5443 27.5058L27.8908 5.03583ZM51.2041 3.6492C49.543 3.28344 47.7802 3.02686 45.9477 2.88492L40.0056 17.45V2.83578C38.5321 2.91767 37.0264 3.07053 35.4994 3.29436L35.4619 42.2292C36.7264 42.0054 38.0016 41.7379 39.2876 41.4158C39.5341 41.3557 39.7805 41.2902 40.027 41.2247L40.0967 25.3549L49.1572 37.8782C50.5986 37.1849 51.9703 36.437 53.2616 35.6454L43.0811 21.2823L51.2041 3.6492ZM32.472 28.4448C32.2148 28.21 32.1773 27.6914 32.1773 26.6269L32.2148 21.7355L34.6903 21.1077L34.7171 18.2307L32.2577 18.853L32.2952 15.6103L30.2377 16.1289L27.0657 23.0293L28.2498 22.729L28.2123 28.7287C28.207 30.8359 29.5251 31.6657 30.3449 31.9332C32.038 32.4955 33.7901 31.4746 34.3849 30.0716C34.7868 29.1108 34.7867 28.019 34.7385 27.4403C34.3688 27.7515 33.2383 29.1272 32.472 28.4339V28.4448ZM57.0926 22.003C57.1034 22.5325 56.9748 23.6844 56.7176 24.4487C56.0639 26.3485 54.4779 27.0199 52.8811 26.0154C51.3969 27.5768 49.7681 27.8388 48.4553 27.4075C47.2551 27.0145 46.2799 24.8745 46.6764 23.1002C46.9176 22.0139 47.3141 21.1459 48.3428 20.1632C49.3609 19.186 51.2737 18.1542 51.7291 17.2753C52.0828 16.5984 51.831 15.8232 51.1183 16.0033C49.9395 16.2927 47.9731 18.5582 47.0676 19.6064L47.089 16.0634C47.7106 15.0152 49.0394 13.2628 50.6522 12.6678C52.9615 11.8107 55.6138 13.11 55.6888 15.7304V22.1285C55.6888 22.7945 56.6479 22.5925 57.098 21.9975L57.0926 22.003ZM51.922 20.8292C51.4612 21.1841 50.2878 22.3032 50.1699 23.0839C50.0413 23.9191 50.5182 24.2303 50.8236 24.2958C51.1719 24.3777 51.8256 24.1266 51.847 23.4278L51.922 20.8238V20.8292ZM64.0046 20.2014C63.6349 20.5126 62.5043 21.8883 61.7381 21.195C61.4809 20.9603 61.4434 20.4416 61.4434 19.3771L61.4809 14.4857L63.9564 13.8579L63.9832 10.9809L61.5238 11.6032L61.5613 8.36047L59.5038 8.87909L56.3318 15.7795L57.5106 15.4792L57.4731 21.4789C57.4677 23.5861 58.7858 24.4159 59.6056 24.6834C61.2988 25.2457 63.0509 24.2248 63.6456 22.8218C64.0475 21.861 64.0475 20.7692 63.9993 20.1905L64.0046 20.2014Z" fill="#B90019"/>
<path fill-rule="evenodd" clip-rule="evenodd" d="M65.2798 8.01654C65.2798 7.74358 65.0119 7.7272 65.0119 7.7272H64.3957V8.85179H64.5671V8.34955H64.744L65.0655 8.85179H65.2851L64.9529 8.33863C65.3012 8.33863 65.2744 8.01654 65.2744 8.01654H65.2798ZM64.5671 8.17485V7.88552H64.9476C64.9476 7.88552 65.0922 7.88552 65.0922 8.01654C65.0922 8.01654 65.1405 8.16939 64.9529 8.16939H64.5671V8.17485ZM64.7868 7.24133C64.2189 7.24133 63.7634 7.71082 63.7634 8.28404C63.7634 8.85725 64.2242 9.32674 64.7868 9.32674C65.3494 9.32674 65.8102 8.85725 65.8102 8.28404C65.8102 7.71082 65.3494 7.24133 64.7868 7.24133ZM64.7868 9.14113C64.326 9.14113 63.951 8.75898 63.951 8.2895C63.951 7.82001 64.326 7.43786 64.7868 7.43786C65.2476 7.43786 65.6227 7.82001 65.6227 8.2895C65.6227 8.75898 65.2476 9.14113 64.7868 9.14113Z" fill="white"/>
</g>
<defs>
<clipPath id="clip0_4902_23532">
<rect width="68" height="45" fill="white" transform="translate(0.510742 0.37915)"/>
</clipPath>
</defs>
</svg>
