<svg width="25" height="24" viewBox="0 0 25 24" fill="none" xmlns="http://www.w3.org/2000/svg">
<path d="M12.5 0C5.87276 0 0.5 5.37276 0.5 12C0.5 18.6272 5.87276 24 12.5 24C19.1272 24 24.5 18.6272 24.5 12C24.5 5.37276 19.1272 0 12.5 0ZM13.0639 18.6716C11.7777 18.6716 10.5739 18.3041 9.55385 17.6705L6.40496 18.6146C5.87276 18.773 5.41024 18.2091 5.67635 17.7212L7.12091 15.0285C6.65839 14.1225 6.39229 13.0898 6.39229 12C6.39229 8.3189 9.37645 5.32841 13.0639 5.32841C16.7513 5.32841 19.7355 8.31257 19.7355 12C19.7355 15.6874 16.7513 18.6716 13.0639 18.6716Z" fill="white"/>
</svg>
