<svg width="25" height="24" viewBox="0 0 25 24" fill="none" xmlns="http://www.w3.org/2000/svg">
<g clip-path="url(#clip0_4903_1169)">
<path d="M12.5509 9.13623C11.8539 9.13623 11.2837 9.70645 11.2837 10.4034C11.2837 11.1003 11.8539 11.6705 12.5509 11.6705C13.2478 11.6705 13.818 11.1003 13.818 10.4034C13.818 9.70645 13.2478 9.13623 12.5509 9.13623Z" fill="white"/>
<path d="M12.5 0C5.87276 0 0.5 5.37276 0.5 12C0.5 18.6272 5.87276 24 12.5 24C19.1272 24 24.5 18.6272 24.5 12C24.5 5.37276 19.1272 0 12.5 0ZM13.5011 18.2027C13.0005 18.792 12.1008 18.792 11.6003 18.2027C10.0734 16.4034 7.25396 12.792 7.25396 10.6568C7.25396 7.72967 9.62355 5.36008 12.5507 5.36008C15.4778 5.36008 17.8474 7.72967 17.8474 10.6568C17.8474 12.792 15.028 16.4097 13.5011 18.2027Z" fill="white"/>
</g>
<defs>
<clipPath id="clip0_4903_1169">
<rect width="24" height="24" fill="white" transform="translate(0.5)"/>
</clipPath>
</defs>
</svg>
