<svg width="25" height="24" viewBox="0 0 25 24" fill="none" xmlns="http://www.w3.org/2000/svg">
<g clip-path="url(#clip0_4903_1167)">
<path d="M12.5 0C5.87276 0 0.5 5.37276 0.5 12C0.5 18.6272 5.87276 24 12.5 24C19.1272 24 24.5 18.6272 24.5 12C24.5 5.37276 19.1272 0 12.5 0ZM5.70803 12.1584C4.04805 11.3474 4.28247 8.91447 6.06917 8.43295L15.9277 5.79092C16.3522 5.67687 16.7703 5.70855 17.1378 5.84794L9.26241 13.7233L5.70803 12.1584ZM18.3733 8.24287L15.7313 18.1014C15.2561 19.8881 12.8168 20.1225 12.0058 18.4625L10.4409 14.9081L18.3163 7.03274C18.4557 7.40021 18.4873 7.81837 18.3733 8.24287Z" fill="white"/>
</g>
<defs>
<clipPath id="clip0_4903_1167">
<rect width="24" height="24" fill="white" transform="translate(0.5)"/>
</clipPath>
</defs>
</svg>
